<svg xmlns="http://www.w3.org/2000/svg" x="0px" y="0px" width="100" height="100" viewBox="0 0 50 50">
    <path d="M 25 1 L 4 13 L 4 37 L 25 49 L 46 37 L 46 13 L 25 1 z M 25 5.6074219 L 42 15.320312 L 42 34.679688 L 25 44.392578 L 8 34.679688 L 8 15.320312 L 25 5.6074219 z M 24 8.4824219 L 10 16.482422 L 10 32.513672 L 15.912109 29.142578 L 16.849609 30.78125 L 11.023438 34.101562 L 25 42.089844 L 38.976562 34.101562 L 33.150391 30.78125 L 34.087891 29.142578 L 40 32.513672 L 40 16.482422 L 26 8.4824219 L 26 15 L 24 15 L 24 8.4824219 z M 13 18 L 37 18 L 25 39 L 13 18 z M 18.171875 20 L 25.003906 23.853516 L 31.960938 20 L 18.171875 20 z M 17.5625 21.951172 L 24 33.21875 L 24 25.583984 L 17.5625 21.951172 z M 32.378906 22.054688 L 26 25.589844 L 26 33.21875 L 32.378906 22.054688 z"></path>
</svg>